# Blender v3.0.0 Alpha OBJ File: 'Bartender2.blend'
# www.blender.org
mtllib Coffee_Table.mtl
o CoffeeTable_Plane.014
v -76.318756 0.305399 686.264465
v -5.195722 0.305399 686.264465
v -76.318756 0.305399 758.831482
v -5.195722 0.305399 758.831482
v -5.195722 26.380421 785.408691
v -5.195722 26.380421 659.687256
v -5.195722 4.325871 688.005615
v -76.318756 4.325871 688.005615
v -76.318756 26.380421 659.687256
v -76.318756 26.380421 785.408691
v -76.318756 4.325871 757.090271
v -5.195722 4.325871 757.090271
v -7.148531 30.400890 792.640747
v -5.195722 28.711903 793.107910
v -6.401226 30.272324 793.305176
v -5.767685 29.906195 793.627258
v -5.344370 29.358250 793.558044
v -5.195722 28.711903 651.987976
v -7.148531 30.400890 652.455139
v -5.344367 29.358250 651.537903
v -5.767682 29.906195 651.468567
v -6.401223 30.272324 651.790649
v -74.365936 30.400890 652.455139
v -76.318756 28.711903 651.987976
v -75.113251 30.272324 651.790649
v -75.746788 29.906195 651.468567
v -76.170105 29.358250 651.537903
v -76.318756 28.711903 793.107910
v -74.365936 30.400890 792.640747
v -76.170097 29.358250 793.558044
v -75.746788 29.906195 793.627258
v -75.113251 30.272324 793.305176
v -76.564003 30.674973 750.830261
v -4.950464 30.674973 750.830261
v -76.564003 30.674973 694.265625
v -4.950464 30.674973 694.265625
v -76.564003 13.515043 750.830261
v -4.950464 13.515043 750.830261
v -76.564003 13.515043 694.265625
v -4.950464 13.515043 694.265625
vt 1.000000 0.000000
vt 0.000000 0.000000
vt 0.000000 0.000000
vt 1.000000 0.000000
vt 0.000000 -0.016189
vt 0.000000 1.016189
vt 0.000000 1.000000
vt 0.000000 0.000000
vt 1.000000 0.000000
vt 1.000000 0.000000
vt 0.000000 1.000000
vt 1.000000 1.000000
vt 1.000000 1.000000
vt 0.000000 1.000000
vt 1.000000 1.000000
vt 0.000000 0.000000
vt 0.000000 1.000000
vt 1.000000 1.000000
vt 0.027457 0.014217
vt 0.972543 0.014217
vt 0.972543 0.985783
vt 0.027457 0.985783
vt 1.000000 -0.016189
vt 1.000000 1.016189
vt 0.998955 1.004453
vt 0.998955 -0.004453
vt 0.995979 0.996310
vt 0.995979 0.003690
vt 0.983050 0.990388
vt 0.983050 0.009612
vt 0.001045 -0.004453
vt 0.001045 1.004453
vt 0.004021 0.003690
vt 0.004021 0.996310
vt 0.016950 0.009612
vt 0.016950 0.990388
vt 0.000000 0.000000
vt 1.000000 0.000000
vt 1.000000 1.000000
vt 0.000000 1.000000
vt 1.000000 0.000000
vt 1.000000 1.000000
vt 0.000000 1.000000
vt 0.000000 0.000000
vn 0.0000 -0.7700 0.6381
vn -1.0000 0.0000 0.0000
vn 1.0000 0.0000 0.0000
vn 0.0000 -1.0000 0.0000
vn 0.0000 0.7890 0.6144
vn 0.0000 0.7890 -0.6144
vn 0.0000 1.0000 0.0000
vn 0.0000 -0.7700 -0.6381
vn 0.9746 0.2241 0.0000
vn 0.7914 0.6114 0.0000
vn 0.5004 0.8658 0.0000
vn 0.1695 0.9855 0.0000
vn -0.9746 0.2241 0.0000
vn -0.7913 0.6114 0.0000
vn -0.5004 0.8658 0.0000
vn -0.1695 0.9855 0.0000
vn 0.0000 -0.5715 0.8206
vn 0.0000 -0.1253 0.9921
vn 0.0000 0.6605 0.7508
vn 0.0000 0.9818 0.1900
vn 0.0000 -0.5714 -0.8206
vn 0.0000 -0.1255 -0.9921
vn 0.0000 0.6605 -0.7508
vn 0.0000 0.9818 -0.1900
g CoffeeTable_Plane.014_Moulding
usemtl Moulding
s off
f 14/1/1 28/2/1 3/3/1 4/4/1
f 28/5/2 24/6/2 9/7/2 10/8/2
f 14/1/3 4/4/3 12/9/3 5/10/3
f 3/3/4 1/11/4 2/12/4 4/4/4
f 10/8/4 9/7/4 6/13/4 5/10/4
f 9/7/5 8/14/5 7/15/5 6/13/5
f 5/10/6 12/9/6 11/16/6 10/8/6
f 11/16/7 12/9/7 7/15/7 8/14/7
f 24/17/2 1/11/2 8/14/2 9/7/2
f 1/11/2 3/3/2 11/16/2 8/14/2
f 3/3/2 28/2/2 10/8/2 11/16/2
f 24/17/8 18/18/8 2/12/8 1/11/8
f 4/4/3 2/12/3 7/15/3 12/9/3
f 29/19/7 13/20/7 19/21/7 23/22/7
f 2/12/3 18/18/3 6/13/3 7/15/3
f 14/23/9 18/24/9 20/25/9 17/26/9
f 17/26/10 20/25/10 21/27/10 16/28/10
f 16/28/11 21/27/11 22/29/11 15/30/11
f 15/30/12 22/29/12 19/21/12 13/20/12
f 24/6/13 28/5/13 30/31/13 27/32/13
f 27/32/14 30/31/14 31/33/14 26/34/14
f 26/34/15 31/33/15 32/35/15 25/36/15
f 25/36/16 32/35/16 29/19/16 23/22/16
f 28/2/17 14/1/17 17/26/17 30/31/17
f 30/31/18 17/26/18 16/28/18 31/33/18
f 31/33/19 16/28/19 15/30/19 32/35/19
f 32/35/20 15/30/20 13/20/20 29/19/20
f 18/18/21 24/17/21 27/32/21 20/25/21
f 20/25/22 27/32/22 26/34/22 21/27/22
f 21/27/23 26/34/23 25/36/23 22/29/23
f 22/29/24 25/36/24 23/22/24 19/21/24
f 18/24/3 14/23/3 5/10/3 6/13/3
g CoffeeTable_Plane.014_Chairs
usemtl Chairs
f 33/37/7 34/38/7 36/39/7 35/40/7
f 36/39/3 34/38/3 38/41/3 40/42/3
f 33/37/2 35/40/2 39/43/2 37/44/2
