# Blender v3.0.0 Alpha OBJ File: 'Bartender2.blend'
# www.blender.org
mtllib Candle.mtl
o Candle.007_Cylinder.012
v 227.615234 85.384758 561.488586
v 227.615234 92.126831 562.037964
v 228.272888 85.384758 561.553406
v 228.165726 92.126831 562.092163
v 228.905273 85.384758 561.745239
v 228.695053 92.126831 562.252686
v 229.488083 85.384758 562.056763
v 229.182892 92.126831 562.513489
v 229.998917 85.384758 562.475952
v 229.610489 92.126831 562.864380
v 230.418152 85.384758 562.986816
v 229.961395 92.126831 563.291992
v 230.729675 85.384758 563.569580
v 230.222153 92.126831 563.779846
v 230.921509 85.384758 564.201965
v 230.382721 92.126831 564.309143
v 230.986267 85.384758 564.859619
v 230.436951 92.126831 564.859619
v 230.921509 85.384758 565.517273
v 230.382721 92.126831 565.410156
v 230.729675 85.384758 566.149658
v 230.222153 92.126831 565.939453
v 230.418152 85.384758 566.732483
v 229.961395 92.126831 566.427307
v 229.998917 85.384758 567.243286
v 229.610489 92.126831 566.854858
v 229.488083 85.384758 567.662537
v 229.182892 92.126831 567.205750
v 228.905273 85.384758 567.974060
v 228.695053 92.126831 567.466553
v 228.272888 85.384758 568.165894
v 228.165726 92.126831 567.627075
v 227.615234 85.384758 568.230652
v 227.615234 92.126831 567.681335
v 226.957581 85.384758 568.165894
v 227.064758 92.126831 567.627075
v 226.325195 85.384758 567.974060
v 226.535416 92.126831 567.466553
v 225.742386 85.384758 567.662537
v 226.047592 92.126831 567.205750
v 225.231552 85.384758 567.243286
v 225.619980 92.126831 566.854858
v 224.812317 85.384758 566.732483
v 225.269073 92.126831 566.427307
v 224.500793 85.384758 566.149658
v 225.008316 92.126831 565.939453
v 224.308960 85.384758 565.517273
v 224.847748 92.126831 565.410156
v 224.244217 85.384758 564.859619
v 224.793533 92.126831 564.859619
v 224.308960 85.384758 564.201965
v 224.847748 92.126831 564.309143
v 224.500793 85.384758 563.569580
v 225.008316 92.126831 563.779846
v 224.812317 85.384758 562.986816
v 225.269073 92.126831 563.291992
v 225.231552 85.384758 562.475952
v 225.619980 92.126831 562.864380
v 225.742386 85.384758 562.056763
v 226.047592 92.126831 562.513489
v 226.325195 85.384758 561.745239
v 226.535416 92.126831 562.252686
v 226.957581 85.384758 561.553406
v 227.064758 92.126831 562.092163
v 228.272888 92.126831 561.553406
v 227.615234 92.126831 561.488586
v 228.905273 92.126831 561.745239
v 229.488083 92.126831 562.056763
v 229.998917 92.126831 562.475952
v 230.418152 92.126831 562.986816
v 230.729675 92.126831 563.569580
v 230.921509 92.126831 564.201965
v 230.986267 92.126831 564.859619
v 230.921509 92.126831 565.517273
v 230.729675 92.126831 566.149658
v 230.418152 92.126831 566.732483
v 229.998917 92.126831 567.243286
v 229.488083 92.126831 567.662537
v 228.905273 92.126831 567.974060
v 228.272888 92.126831 568.165894
v 227.615234 92.126831 568.230652
v 226.957581 92.126831 568.165894
v 226.325195 92.126831 567.974060
v 225.742386 92.126831 567.662537
v 225.231552 92.126831 567.243286
v 224.812317 92.126831 566.732483
v 224.500793 92.126831 566.149658
v 224.308960 92.126831 565.517273
v 224.244217 92.126831 564.859619
v 224.308960 92.126831 564.201965
v 224.500793 92.126831 563.569580
v 224.812317 92.126831 562.986816
v 225.231552 92.126831 562.475952
v 225.742386 92.126831 562.056763
v 226.325195 92.126831 561.745239
v 226.957581 92.126831 561.553406
v 228.165726 85.897530 562.092163
v 227.615234 85.897530 562.037964
v 228.695053 85.897530 562.252686
v 229.182892 85.897530 562.513489
v 229.610489 85.897530 562.864380
v 229.961395 85.897530 563.291992
v 230.222153 85.897530 563.779846
v 230.382721 85.897530 564.309143
v 230.436951 85.897530 564.859619
v 230.382721 85.897530 565.410156
v 230.222153 85.897530 565.939453
v 229.961395 85.897530 566.427307
v 229.610489 85.897530 566.854858
v 229.182892 85.897530 567.205750
v 228.695053 85.897530 567.466553
v 228.165726 85.897530 567.627075
v 227.615234 85.897530 567.681335
v 227.064758 85.897530 567.627075
v 226.535416 85.897530 567.466553
v 226.047592 85.897530 567.205750
v 225.619980 85.897530 566.854858
v 225.269073 85.897530 566.427307
v 225.008316 85.897530 565.939453
v 224.847748 85.897530 565.410156
v 224.793533 85.897530 564.859619
v 224.847748 85.897530 564.309143
v 225.008316 85.897530 563.779846
v 225.269073 85.897530 563.291992
v 225.619980 85.897530 562.864380
v 226.047592 85.897530 562.513489
v 226.535416 85.897530 562.252686
v 227.064758 85.897530 562.092163
vt 1.000000 0.500000
vt 1.000000 1.000000
vt 0.968750 1.000000
vt 0.968750 0.500000
vt 0.937500 1.000000
vt 0.937500 0.500000
vt 0.906250 1.000000
vt 0.906250 0.500000
vt 0.875000 1.000000
vt 0.875000 0.500000
vt 0.843750 1.000000
vt 0.843750 0.500000
vt 0.812500 1.000000
vt 0.812500 0.500000
vt 0.781250 1.000000
vt 0.781250 0.500000
vt 0.750000 1.000000
vt 0.750000 0.500000
vt 0.718750 1.000000
vt 0.718750 0.500000
vt 0.687500 1.000000
vt 0.687500 0.500000
vt 0.656250 1.000000
vt 0.656250 0.500000
vt 0.625000 1.000000
vt 0.625000 0.500000
vt 0.593750 1.000000
vt 0.593750 0.500000
vt 0.562500 1.000000
vt 0.562500 0.500000
vt 0.531250 1.000000
vt 0.531250 0.500000
vt 0.500000 1.000000
vt 0.500000 0.500000
vt 0.468750 1.000000
vt 0.468750 0.500000
vt 0.437500 1.000000
vt 0.437500 0.500000
vt 0.406250 1.000000
vt 0.406250 0.500000
vt 0.375000 1.000000
vt 0.375000 0.500000
vt 0.343750 1.000000
vt 0.343750 0.500000
vt 0.312500 1.000000
vt 0.312500 0.500000
vt 0.281250 1.000000
vt 0.281250 0.500000
vt 0.250000 1.000000
vt 0.250000 0.500000
vt 0.218750 1.000000
vt 0.218750 0.500000
vt 0.187500 1.000000
vt 0.187500 0.500000
vt 0.156250 1.000000
vt 0.156250 0.500000
vt 0.125000 1.000000
vt 0.125000 0.500000
vt 0.093750 1.000000
vt 0.093750 0.500000
vt 0.062500 1.000000
vt 0.062500 0.500000
vt 0.064402 0.326877
vt 0.052970 0.289192
vt 0.052970 0.289192
vt 0.064402 0.326877
vt 0.031250 1.000000
vt 0.031250 0.500000
vt 0.000000 1.000000
vt 0.000000 0.500000
vt 0.750000 0.490000
vt 0.796822 0.485388
vt 0.841844 0.471731
vt 0.883337 0.449553
vt 0.919706 0.419706
vt 0.949553 0.383337
vt 0.971731 0.341844
vt 0.985388 0.296822
vt 0.990000 0.250000
vt 0.985388 0.203178
vt 0.971731 0.158156
vt 0.949553 0.116663
vt 0.919706 0.080294
vt 0.883337 0.050447
vt 0.841844 0.028269
vt 0.796822 0.014612
vt 0.750000 0.010000
vt 0.703178 0.014612
vt 0.658156 0.028269
vt 0.616663 0.050447
vt 0.580294 0.080294
vt 0.550447 0.116663
vt 0.528269 0.158156
vt 0.514612 0.203178
vt 0.510000 0.250000
vt 0.514612 0.296822
vt 0.528269 0.341844
vt 0.550447 0.383337
vt 0.580294 0.419706
vt 0.616663 0.449553
vt 0.658156 0.471731
vt 0.703178 0.485388
vt 0.250000 0.450890
vt 0.289192 0.447030
vt 0.296822 0.485388
vt 0.250000 0.490000
vt 0.326877 0.435598
vt 0.341844 0.471731
vt 0.361609 0.417034
vt 0.383337 0.449553
vt 0.392051 0.392051
vt 0.419706 0.419706
vt 0.417034 0.361609
vt 0.449553 0.383337
vt 0.435598 0.326877
vt 0.471731 0.341844
vt 0.447030 0.289192
vt 0.485388 0.296822
vt 0.450890 0.250000
vt 0.490000 0.250000
vt 0.447030 0.210808
vt 0.485388 0.203178
vt 0.435598 0.173123
vt 0.471731 0.158156
vt 0.417034 0.138391
vt 0.449553 0.116663
vt 0.392051 0.107949
vt 0.419706 0.080294
vt 0.361609 0.082966
vt 0.383337 0.050447
vt 0.326877 0.064402
vt 0.341844 0.028269
vt 0.289192 0.052970
vt 0.296822 0.014612
vt 0.250000 0.049110
vt 0.250000 0.010000
vt 0.210808 0.052970
vt 0.203178 0.014612
vt 0.173123 0.064402
vt 0.158156 0.028269
vt 0.138391 0.082966
vt 0.116663 0.050447
vt 0.107949 0.107949
vt 0.080294 0.080294
vt 0.082966 0.138391
vt 0.050447 0.116663
vt 0.064402 0.173123
vt 0.028269 0.158156
vt 0.052970 0.210808
vt 0.014612 0.203178
vt 0.049110 0.250000
vt 0.010000 0.250000
vt 0.014612 0.296822
vt 0.028269 0.341844
vt 0.082966 0.361609
vt 0.050447 0.383337
vt 0.107949 0.392051
vt 0.080294 0.419706
vt 0.138391 0.417034
vt 0.116663 0.449553
vt 0.173123 0.435598
vt 0.158156 0.471731
vt 0.210808 0.447030
vt 0.203178 0.485388
vt 0.289192 0.447030
vt 0.250000 0.450890
vt 0.210808 0.447030
vt 0.173123 0.435598
vt 0.138391 0.417034
vt 0.107949 0.392051
vt 0.082966 0.361609
vt 0.049110 0.250000
vt 0.052970 0.210808
vt 0.064402 0.173123
vt 0.082966 0.138391
vt 0.107949 0.107949
vt 0.138391 0.082966
vt 0.173123 0.064402
vt 0.210808 0.052970
vt 0.250000 0.049110
vt 0.289192 0.052970
vt 0.326877 0.064402
vt 0.361609 0.082966
vt 0.392051 0.107949
vt 0.417034 0.138391
vt 0.435598 0.173123
vt 0.447030 0.210808
vt 0.450890 0.250000
vt 0.447030 0.289192
vt 0.435598 0.326877
vt 0.417034 0.361609
vt 0.392051 0.392051
vt 0.361609 0.417034
vt 0.326877 0.435598
vn 0.0981 0.0000 -0.9952
vn 0.2903 0.0000 -0.9569
vn 0.4714 0.0000 -0.8819
vn 0.6344 0.0000 -0.7730
vn 0.7730 0.0000 -0.6344
vn 0.8819 0.0000 -0.4714
vn 0.9569 0.0000 -0.2903
vn 0.9952 0.0000 -0.0980
vn 0.9952 0.0000 0.0980
vn 0.9569 0.0000 0.2903
vn 0.8819 0.0000 0.4714
vn 0.7730 0.0000 0.6344
vn 0.6344 0.0000 0.7730
vn 0.4714 0.0000 0.8819
vn 0.2903 0.0000 0.9569
vn 0.0980 0.0000 0.9952
vn -0.0980 0.0000 0.9952
vn -0.2903 0.0000 0.9569
vn -0.4714 0.0000 0.8819
vn -0.6344 0.0000 0.7730
vn -0.7730 0.0000 0.6344
vn -0.8819 0.0000 0.4714
vn -0.9569 0.0000 0.2903
vn -0.9952 0.0000 0.0980
vn -0.9952 0.0000 -0.0980
vn -0.9569 0.0000 -0.2903
vn -0.8819 0.0000 -0.4714
vn -0.7730 0.0000 -0.6344
vn -0.6344 0.0000 -0.7730
vn -0.4714 0.0000 -0.8819
vn -0.2903 0.0000 -0.9569
vn -0.0981 0.0000 -0.9952
vn 0.0000 -1.0000 0.0000
vn 0.0000 1.0000 0.0000
vn -0.0979 0.0000 0.9952
vn -0.2902 0.0000 -0.9570
vn -0.2902 0.0000 0.9570
vn 0.6343 0.0000 0.7730
vn -0.4715 0.0000 0.8819
vn 0.4715 0.0000 0.8819
vn 0.2902 0.0000 0.9570
vn 0.2902 0.0000 -0.9570
vn 0.0979 0.0000 0.9952
vn 0.4715 0.0000 -0.8819
vn 0.6343 0.0000 -0.7730
g Candle.007_Cylinder.012_white
usemtl white
s off
f 1/1/1 66/2/1 65/3/1 3/4/1
f 3/4/2 65/3/2 67/5/2 5/6/2
f 5/6/3 67/5/3 68/7/3 7/8/3
f 7/8/4 68/7/4 69/9/4 9/10/4
f 9/10/5 69/9/5 70/11/5 11/12/5
f 11/12/6 70/11/6 71/13/6 13/14/6
f 13/14/7 71/13/7 72/15/7 15/16/7
f 15/16/8 72/15/8 73/17/8 17/18/8
f 17/18/9 73/17/9 74/19/9 19/20/9
f 19/20/10 74/19/10 75/21/10 21/22/10
f 21/22/11 75/21/11 76/23/11 23/24/11
f 23/24/12 76/23/12 77/25/12 25/26/12
f 25/26/13 77/25/13 78/27/13 27/28/13
f 27/28/14 78/27/14 79/29/14 29/30/14
f 29/30/15 79/29/15 80/31/15 31/32/15
f 31/32/16 80/31/16 81/33/16 33/34/16
f 33/34/17 81/33/17 82/35/17 35/36/17
f 35/36/18 82/35/18 83/37/18 37/38/18
f 37/38/19 83/37/19 84/39/19 39/40/19
f 39/40/20 84/39/20 85/41/20 41/42/20
f 41/42/21 85/41/21 86/43/21 43/44/21
f 43/44/22 86/43/22 87/45/22 45/46/22
f 45/46/23 87/45/23 88/47/23 47/48/23
f 47/48/24 88/47/24 89/49/24 49/50/24
f 49/50/25 89/49/25 90/51/25 51/52/25
f 51/52/26 90/51/26 91/53/26 53/54/26
f 53/54/27 91/53/27 92/55/27 55/56/27
f 55/56/28 92/55/28 93/57/28 57/58/28
f 57/58/29 93/57/29 94/59/29 59/60/29
f 59/60/30 94/59/30 95/61/30 61/62/30
f 54/63/10 52/64/10 122/65/10 123/66/10
f 61/62/31 95/61/31 96/67/31 63/68/31
f 63/68/32 96/67/32 66/69/32 1/70/32
f 1/71/33 3/72/33 5/73/33 7/74/33 9/75/33 11/76/33 13/77/33 15/78/33 17/79/33 19/80/33 21/81/33 23/82/33 25/83/33 27/84/33 29/85/33 31/86/33 33/87/33 35/88/33 37/89/33 39/90/33 41/91/33 43/92/33 45/93/33 47/94/33 49/95/33 51/96/33 53/97/33 55/98/33 57/99/33 59/100/33 61/101/33 63/102/33
f 2/103/34 4/104/34 65/105/34 66/106/34
f 4/104/34 6/107/34 67/108/34 65/105/34
f 6/107/34 8/109/34 68/110/34 67/108/34
f 8/109/34 10/111/34 69/112/34 68/110/34
f 10/111/34 12/113/34 70/114/34 69/112/34
f 12/113/34 14/115/34 71/116/34 70/114/34
f 14/115/34 16/117/34 72/118/34 71/116/34
f 16/117/34 18/119/34 73/120/34 72/118/34
f 18/119/34 20/121/34 74/122/34 73/120/34
f 20/121/34 22/123/34 75/124/34 74/122/34
f 22/123/34 24/125/34 76/126/34 75/124/34
f 24/125/34 26/127/34 77/128/34 76/126/34
f 26/127/34 28/129/34 78/130/34 77/128/34
f 28/129/34 30/131/34 79/132/34 78/130/34
f 30/131/34 32/133/34 80/134/34 79/132/34
f 32/133/34 34/135/34 81/136/34 80/134/34
f 34/135/34 36/137/34 82/138/34 81/136/34
f 36/137/34 38/139/34 83/140/34 82/138/34
f 38/139/34 40/141/34 84/142/34 83/140/34
f 40/141/34 42/143/34 85/144/34 84/142/34
f 42/143/34 44/145/34 86/146/34 85/144/34
f 44/145/34 46/147/34 87/148/34 86/146/34
f 46/147/34 48/149/34 88/150/34 87/148/34
f 48/149/34 50/151/34 89/152/34 88/150/34
f 50/151/34 52/64/34 90/153/34 89/152/34
f 52/64/34 54/63/34 91/154/34 90/153/34
f 54/63/34 56/155/34 92/156/34 91/154/34
f 56/155/34 58/157/34 93/158/34 92/156/34
f 58/157/34 60/159/34 94/160/34 93/158/34
f 60/159/34 62/161/34 95/162/34 94/160/34
f 62/161/34 64/163/34 96/164/34 95/162/34
f 64/163/34 2/103/34 66/106/34 96/164/34
f 97/165/34 98/166/34 128/167/34 127/168/34 126/169/34 125/170/34 124/171/34 123/66/34 122/65/34 121/172/34 120/173/34 119/174/34 118/175/34 117/176/34 116/177/34 115/178/34 114/179/34 113/180/34 112/181/34 111/182/34 110/183/34 109/184/34 108/185/34 107/186/34 106/187/34 105/188/34 104/189/34 103/190/34 102/191/34 101/192/34 100/193/34 99/194/34
f 28/129/29 26/127/29 109/184/29 110/183/29
f 56/155/11 54/63/11 123/66/11 124/171/11
f 30/131/30 28/129/30 110/183/30 111/182/30
f 4/104/35 2/103/35 98/166/35 97/165/35
f 58/157/12 56/155/12 124/171/12 125/170/12
f 32/133/36 30/131/36 111/182/36 112/181/36
f 6/107/37 4/104/37 97/165/37 99/194/37
f 60/159/38 58/157/38 125/170/38 126/169/38
f 34/135/32 32/133/32 112/181/32 113/180/32
f 8/109/39 6/107/39 99/194/39 100/193/39
f 62/161/40 60/159/40 126/169/40 127/168/40
f 36/137/1 34/135/1 113/180/1 114/179/1
f 10/111/20 8/109/20 100/193/20 101/192/20
f 64/163/41 62/161/41 127/168/41 128/167/41
f 38/139/42 36/137/42 114/179/42 115/178/42
f 12/113/21 10/111/21 101/192/21 102/191/21
f 2/103/43 64/163/43 128/167/43 98/166/43
f 40/141/44 38/139/44 115/178/44 116/177/44
f 14/115/22 12/113/22 102/191/22 103/190/22
f 42/143/45 40/141/45 116/177/45 117/176/45
f 16/117/23 14/115/23 103/190/23 104/189/23
f 44/145/5 42/143/5 117/176/5 118/175/5
f 18/119/24 16/117/24 104/189/24 105/188/24
f 46/147/6 44/145/6 118/175/6 119/174/6
f 20/121/25 18/119/25 105/188/25 106/187/25
f 48/149/7 46/147/7 119/174/7 120/173/7
f 22/123/26 20/121/26 106/187/26 107/186/26
f 50/151/8 48/149/8 120/173/8 121/172/8
f 24/125/27 22/123/27 107/186/27 108/185/27
f 52/64/9 50/151/9 121/172/9 122/65/9
f 26/127/28 24/125/28 108/185/28 109/184/28
