# Blender v3.0.0 Alpha OBJ File: 'Bartender2.blend'
# www.blender.org
mtllib Bar_Back.mtl
o Bar_back_Plane.045
v 757.262817 90.596367 -243.717651
v 295.696991 90.596367 -319.500092
v 757.262817 90.596367 -319.500092
v 757.262817 117.599937 -243.717651
v 295.696991 117.599937 -319.500092
v 757.262817 117.599937 -319.500092
v 320.775635 90.596367 -243.717651
v 295.696991 90.596367 -268.796265
v 311.178436 90.596367 -245.626648
v 303.042358 90.596367 -251.063019
v 297.605988 90.596367 -259.199097
v 295.696991 117.599937 -268.796265
v 320.775635 117.599937 -243.717651
v 297.605988 117.599937 -259.199097
v 303.042358 117.599937 -251.063019
v 311.178436 117.599937 -245.626648
v 757.262817 107.778763 -319.500092
v 757.262817 107.778763 -243.717651
v 295.696991 107.778763 -319.500092
v 320.775635 107.778763 -243.717651
v 311.178436 107.778763 -245.626648
v 303.042358 107.778763 -251.063019
v 297.605988 107.778763 -259.199097
v 295.696991 107.778763 -268.796265
v 319.861877 107.778763 -234.440353
v 319.861877 117.599937 -234.440353
v 307.580780 117.599937 -236.941101
v 296.394714 117.599937 -244.415375
v 288.920441 117.599937 -255.601425
v 286.419708 117.599937 -267.882538
v 286.400696 117.599937 -319.500092
v 757.262817 117.599937 -234.421371
v 757.262817 107.778763 -234.421371
v 286.400696 107.778763 -319.500092
v 307.580780 107.778763 -236.941101
v 296.394714 107.778763 -244.415375
v 288.920441 107.778763 -255.601425
v 286.419708 107.778763 -267.882538
vt 0.001234 0.204288
vt 0.004747 0.032309
vt 0.004747 0.032309
vt 0.001234 0.204288
vt 1.000000 0.000000
vt 1.000000 1.000000
vt 1.000000 1.000000
vt 1.000000 0.000000
vt 0.048623 0.000000
vt 0.030016 0.008397
vt 0.004747 0.032309
vt 0.001234 0.204288
vt 0.000000 0.330929
vt 0.000000 1.000000
vt 1.000000 1.000000
vt 1.000000 0.000000
vt 0.000000 1.000000
vt 0.000000 1.000000
vt 0.000000 0.330929
vt 0.001234 0.204288
vt 0.004747 0.032309
vt 0.030016 0.008397
vt 0.048623 0.000000
vt 0.000000 1.000000
vt 0.000000 1.000000
vt 0.000000 0.330929
vt 0.000000 0.330929
vt 0.000000 0.330929
vt 0.001234 0.204288
vt 1.000000 0.000000
vt 1.000000 0.000000
vt 0.030016 0.008397
vt 0.048623 0.000000
vt 0.048623 0.000000
vt 0.048623 0.000000
vt 0.030016 0.008397
vt 0.030016 0.008397
vt 0.004747 0.032309
vn 0.0000 -1.0000 0.0000
vn 1.0000 0.0000 0.0000
vn 0.0000 0.0000 -1.0000
vn 0.0000 1.0000 0.0000
vn -1.0000 0.0000 0.0000
vn -0.9808 0.0000 0.1951
vn -0.8315 0.0000 0.5556
vn -0.5556 0.0000 0.8315
vn -0.1951 0.0000 0.9808
vn 0.0000 0.0000 1.0000
vn -0.1995 0.0000 0.9799
vn -0.9799 0.0000 0.1995
vn -1.0000 0.0000 0.0004
g Bar_back_Plane.045_Black.001
usemtl Black.001
s off
f 23/1/1 22/2/1 36/3/1 37/4/1
f 18/5/2 17/6/2 6/7/2 4/8/2
f 7/9/1 9/10/1 10/11/1 11/12/1 8/13/1 2/14/1 3/15/1 1/16/1
f 17/6/3 19/17/3 5/18/3 6/7/3
f 12/19/4 14/20/4 15/21/4 16/22/4 13/23/4 4/8/4 6/7/4 5/18/4
f 5/18/3 19/17/3 34/24/3 31/25/3
f 24/26/1 23/1/1 37/4/1 38/27/1
f 14/20/4 12/19/4 30/28/4 29/29/4
f 18/5/2 4/8/2 32/30/2 33/31/2
f 19/17/1 24/26/1 38/27/1 34/24/1
f 2/14/5 8/13/5 24/26/5 19/17/5
f 11/12/6 23/1/6 24/26/6 8/13/6
f 10/11/7 22/2/7 23/1/7 11/12/7
f 9/10/8 21/32/8 22/2/8 10/11/8
f 7/9/9 20/33/9 21/32/9 9/10/9
f 3/15/3 2/14/3 19/17/3 17/6/3
f 1/16/2 3/15/2 17/6/2 18/5/2
f 7/9/10 1/16/10 18/5/10 20/33/10
f 25/34/10 33/31/10 32/30/10 26/35/10
f 25/34/11 26/35/11 27/36/11 35/37/11
f 35/37/8 27/36/8 28/38/8 36/3/8
f 36/3/7 28/38/7 29/29/7 37/4/7
f 37/4/12 29/29/12 30/28/12 38/27/12
f 34/24/13 38/27/13 30/28/13 31/25/13
f 16/22/4 15/21/4 28/38/4 27/36/4
f 22/2/1 21/32/1 35/37/1 36/3/1
f 12/19/4 5/18/4 31/25/4 30/28/4
f 21/32/1 20/33/1 25/34/1 35/37/1
f 15/21/4 14/20/4 29/29/4 28/38/4
f 4/8/4 13/23/4 26/35/4 32/30/4
f 13/23/4 16/22/4 27/36/4 26/35/4
f 20/33/1 18/5/1 33/31/1 25/34/1
