# Blender v3.0.0 Alpha OBJ File: 'Bartender2.blend'
# www.blender.org
mtllib Bar_Back_Top.mtl
o Bar_back_Top_Plane.034
v 758.420837 273.000061 -268.195496
v 57.400440 273.000061 -343.977966
v 758.420837 273.000061 -343.977966
v 758.420837 300.003632 -268.195496
v 57.400440 300.003632 -343.977966
v 758.420837 300.003632 -343.977966
v 82.479080 273.000061 -268.195496
v 57.400440 273.000061 -293.274139
v 72.881905 273.000061 -270.104492
v 64.745834 273.000061 -275.540863
v 59.309460 273.000061 -283.676971
v 57.400440 300.003632 -293.274139
v 82.479080 300.003632 -268.195496
v 59.309460 300.003632 -283.676971
v 64.745834 300.003632 -275.540863
v 72.881905 300.003632 -270.104492
v 758.420837 290.182434 -343.977966
v 758.420837 290.182434 -268.195496
v 57.400440 290.182434 -343.977966
v 82.479080 290.182434 -268.195496
v 72.881905 290.182434 -270.104492
v 64.745834 290.182434 -275.540863
v 59.309460 290.182434 -283.676971
v 57.400440 290.182434 -293.274139
v 81.565346 290.182434 -258.918213
v 81.565346 300.003632 -258.918213
v 69.284233 300.003632 -261.418976
v 58.098198 300.003632 -268.893250
v 50.623917 300.003632 -280.079285
v 48.123146 300.003632 -292.360413
v 48.104168 300.003632 -343.977966
v 758.420837 300.003632 -258.899231
v 758.420837 290.182434 -258.899231
v 48.104168 290.182434 -343.977966
v 69.284233 290.182434 -261.418976
v 58.098198 290.182434 -268.893250
v 50.623917 290.182434 -280.079285
v 48.123146 290.182434 -292.360413
vt 0.001234 0.204288
vt 0.004747 0.032309
vt 0.004747 0.032309
vt 0.001234 0.204288
vt 1.000000 0.000000
vt 1.000000 1.000000
vt 1.000000 1.000000
vt 1.000000 0.000000
vt 0.048623 0.000000
vt 0.030016 0.008397
vt 0.004747 0.032309
vt 0.001234 0.204288
vt 0.000000 0.330929
vt 0.000000 1.000000
vt 1.000000 1.000000
vt 1.000000 0.000000
vt 0.000000 1.000000
vt 0.000000 1.000000
vt 0.000000 0.330929
vt 0.001234 0.204288
vt 0.004747 0.032309
vt 0.030016 0.008397
vt 0.048623 0.000000
vt 0.000000 1.000000
vt 0.000000 1.000000
vt 0.000000 0.330929
vt 0.000000 0.330929
vt 0.000000 0.330929
vt 0.001234 0.204288
vt 1.000000 0.000000
vt 1.000000 0.000000
vt 0.030016 0.008397
vt 0.048623 0.000000
vt 0.048623 0.000000
vt 0.048623 0.000000
vt 0.030016 0.008397
vt 0.030016 0.008397
vt 0.004747 0.032309
vn 0.0000 -1.0000 -0.0000
vn 1.0000 0.0000 0.0000
vn 0.0000 0.0000 -1.0000
vn 0.0000 1.0000 -0.0000
vn -1.0000 0.0000 0.0000
vn -0.9808 0.0000 0.1951
vn -0.8315 0.0000 0.5556
vn -0.5556 0.0000 0.8315
vn -0.1951 0.0000 0.9808
vn 0.0000 0.0000 1.0000
vn -0.1995 0.0000 0.9799
vn -0.9799 0.0000 0.1995
vn -1.0000 0.0000 0.0004
g Bar_back_Top_Plane.034_Black.001
usemtl Black.001
s off
f 23/1/1 22/2/1 36/3/1 37/4/1
f 18/5/2 17/6/2 6/7/2 4/8/2
f 7/9/1 9/10/1 10/11/1 11/12/1 8/13/1 2/14/1 3/15/1 1/16/1
f 17/6/3 19/17/3 5/18/3 6/7/3
f 12/19/4 14/20/4 15/21/4 16/22/4 13/23/4 4/8/4 6/7/4 5/18/4
f 5/18/3 19/17/3 34/24/3 31/25/3
f 24/26/1 23/1/1 37/4/1 38/27/1
f 14/20/4 12/19/4 30/28/4 29/29/4
f 18/5/2 4/8/2 32/30/2 33/31/2
f 19/17/1 24/26/1 38/27/1 34/24/1
f 2/14/5 8/13/5 24/26/5 19/17/5
f 11/12/6 23/1/6 24/26/6 8/13/6
f 10/11/7 22/2/7 23/1/7 11/12/7
f 9/10/8 21/32/8 22/2/8 10/11/8
f 7/9/9 20/33/9 21/32/9 9/10/9
f 3/15/3 2/14/3 19/17/3 17/6/3
f 1/16/2 3/15/2 17/6/2 18/5/2
f 7/9/10 1/16/10 18/5/10 20/33/10
f 25/34/10 33/31/10 32/30/10 26/35/10
f 25/34/11 26/35/11 27/36/11 35/37/11
f 35/37/8 27/36/8 28/38/8 36/3/8
f 36/3/7 28/38/7 29/29/7 37/4/7
f 37/4/12 29/29/12 30/28/12 38/27/12
f 34/24/13 38/27/13 30/28/13 31/25/13
f 16/22/4 15/21/4 28/38/4 27/36/4
f 22/2/1 21/32/1 35/37/1 36/3/1
f 12/19/4 5/18/4 31/25/4 30/28/4
f 21/32/1 20/33/1 25/34/1 35/37/1
f 15/21/4 14/20/4 29/29/4 28/38/4
f 4/8/4 13/23/4 26/35/4 32/30/4
f 13/23/4 16/22/4 27/36/4 26/35/4
f 20/33/1 18/5/1 33/31/1 25/34/1
