# Blender v3.0.0 Alpha OBJ File: 'Bartender2.blend'
# www.blender.org
mtllib Book_03.mtl
o Book.001_Cube.023
v -143.551651 142.186401 515.682129
v -143.551651 149.937958 515.682129
v -121.480598 142.186401 529.755615
v -121.480598 147.866425 529.755615
v -163.804977 142.186401 547.444702
v -163.804977 147.866425 547.444702
v -141.733932 142.186401 561.518311
v -141.733932 147.866425 561.518311
v -119.733955 140.114883 530.869385
v -143.551651 140.114883 515.682129
v -143.551651 147.866425 515.682129
v -119.733955 149.937958 530.869385
v -139.987274 149.937958 562.631958
v -139.987274 140.114883 562.631958
v -163.804977 140.114883 547.444702
v -163.804977 149.937958 547.444702
v -143.094940 142.186401 517.746155
v -143.094940 147.866425 517.746155
v -161.740906 147.866425 546.988037
v -161.740906 142.186401 546.988037
v -122.617172 142.186401 531.538086
v -122.617172 147.866425 531.538086
v -140.597351 147.866425 559.735840
v -140.597351 142.186401 559.735840
vt 0.427721 0.231667
vt 0.427721 0.000000
vt 0.427721 0.000000
vt 0.427721 0.231667
vt 0.375000 0.250000
vt 0.625000 0.250000
vt 0.625000 0.500000
vt 0.375000 0.500000
vt 0.572279 0.231667
vt 0.572279 0.231667
vt 0.427721 0.750000
vt 0.427721 0.518333
vt 0.427721 0.518333
vt 0.427721 0.750000
vt 0.125000 0.500000
vt 0.375000 0.750000
vt 0.125000 0.750000
vt 0.875000 0.500000
vt 0.875000 0.750000
vt 0.625000 0.750000
vt 0.375000 0.000000
vt 0.572279 0.000000
vt 0.625000 0.000000
vt 0.572279 0.518333
vt 0.572279 0.750000
vt 0.427721 1.000000
vt 0.375000 1.000000
vt 0.572279 1.000000
vt 0.625000 1.000000
vt 0.572279 1.000000
vt 0.572279 0.750000
vt 0.572279 0.518333
vt 0.572279 0.000000
vt 0.427721 1.000000
vn 0.0000 1.0000 0.0000
vn 0.8432 0.0000 0.5376
vn -0.8432 0.0000 -0.5376
vn 0.0000 -1.0000 0.0000
vn 0.5376 -0.0000 -0.8432
vn -0.5376 0.0000 0.8432
vn 0.5586 0.0000 -0.8294
vn -0.5163 0.0000 0.8564
g Book.001_Cube.023_Book
usemtl Book
s off
f 3/1/1 1/2/1 17/3/1 21/4/1
f 9/5/2 12/6/2 13/7/2 14/8/2
f 4/9/3 3/1/3 21/4/3 22/10/3
f 5/11/1 7/12/1 24/13/1 20/14/1
f 9/15/4 14/8/4 15/16/4 10/17/4
f 13/7/1 12/18/1 2/19/1 16/20/1
f 1/2/5 3/1/5 9/5/5 10/21/5
f 4/9/5 11/22/5 2/23/5 12/6/5
f 3/1/5 4/9/5 12/6/5 9/5/5
f 8/24/6 7/12/6 14/8/6 13/7/6
f 7/12/6 5/11/6 15/16/6 14/8/6
f 6/25/6 8/24/6 13/7/6 16/20/6
f 5/11/3 1/26/3 10/27/3 15/16/3
f 11/28/3 6/25/3 16/20/3 2/29/3
f 6/25/4 11/28/4 18/30/4 19/31/4
f 8/24/4 6/25/4 19/31/4 23/32/4
f 7/12/3 8/24/3 23/32/3 24/13/3
f 11/22/4 4/9/4 22/10/4 18/33/4
f 1/26/1 5/11/1 20/14/1 17/34/1
g Book.001_Cube.023_Paper
usemtl Paper
f 17/3/7 18/33/7 22/10/7 21/4/7
f 24/13/8 23/32/8 19/31/8 20/14/8
f 20/14/3 19/31/3 18/30/3 17/34/3
